<?xml version="1.0" standalone="no"?>
<!DOCTYPE svg PUBLIC "-//W3C//DTD SVG 20010904//EN"
 "http://www.w3.org/TR/2001/REC-SVG-20010904/DTD/svg10.dtd">
<svg version="1.0" xmlns="http://www.w3.org/2000/svg"
 width="700.000000pt" height="700.000000pt" viewBox="0 0 700.000000 700.000000"
 preserveAspectRatio="xMidYMid meet">
<metadata>
Created by potrace 1.14, written by Peter Selinger 2001-2017
</metadata>
<g transform="translate(0.000000,700.000000) scale(0.100000,-0.100000)"
fill="#000000" stroke="none">
<path d="M590 5643 c-1 -21 0 -128 1 -238 1 -110 2 -1076 2 -2147 l-1 -1946
698 0 697 1 -1 756 -1 756 500 1 c275 1 525 4 555 8 30 3 78 8 105 11 189 21
437 95 593 176 131 69 211 127 312 229 192 191 308 438 356 755 10 63 12 413
3 475 -15 109 -18 123 -34 193 -97 418 -385 727 -821 878 -87 30 -251 73 -324
84 -25 4 -53 9 -64 11 -10 2 -44 6 -75 9 -31 4 -72 9 -91 12 -19 4 -569 8
-1222 10 l-1188 4 0 -38z m2205 -1008 c117 -33 181 -81 216 -161 27 -60 30
-74 36 -179 12 -209 -62 -353 -209 -403 -100 -35 -180 -40 -517 -39 l-336 2
-1 403 -1 404 376 -5 c315 -4 386 -7 436 -22z"/>
<path d="M4994 4328 c0 -744 -3 -1400 -6 -1458 -4 -58 -14 -143 -23 -189 -44
-226 -127 -290 -389 -295 -109 -2 -185 5 -393 39 -48 8 -90 10 -93 6 -3 -5 -5
-251 -5 -548 l1 -538 34 -17 c38 -19 148 -54 193 -62 15 -3 37 -8 48 -11 12
-4 31 -8 42 -10 12 -1 58 -7 102 -13 44 -7 100 -14 125 -17 129 -17 463 -12
610 10 408 59 732 236 908 495 20 30 40 57 43 60 26 20 118 242 143 345 49
199 48 169 50 1918 l2 1637 -696 0 -697 0 1 -1352z"/>
</g>
</svg>
