<svg width="472" height="412" viewBox="0 0 472 412" fill="none" xmlns="http://www.w3.org/2000/svg">
<path d="M236.995 27.3796C236.586 27.3845 236.178 27.4289 235.779 27.5121C226.218 27.5954 217.297 32.3018 212.481 40.1822L118.963 193.178L25.4449 346.174H25.4509C15.2167 362.914 28.4941 384.642 48.9591 384.643H235.995H423.038C443.503 384.642 456.786 362.914 446.552 346.174L353.033 193.178L259.509 40.1822C255.125 33.0065 247.302 28.4139 238.626 27.606C238.192 27.4851 237.745 27.411 237.293 27.3852H237.281C237.188 27.3813 237.094 27.3794 237.001 27.3797L236.995 27.3796Z" fill="black"/>
<path d="M236.997 33.0329C229.096 32.6803 221.621 36.5388 217.667 43.0088L124.149 196.005L30.6311 349.001C22.6271 362.093 32.9551 378.989 48.9607 378.989H235.997H423.039C439.045 378.989 449.373 362.093 441.369 349.001L347.851 196.005L254.327 43.0088C250.729 37.1214 244.191 33.3559 237.002 33.0329H236.996H236.997Z" fill="white"/>
<path d="M236.716 38.6806C231.041 38.4273 225.692 41.188 222.852 45.8355L129.334 198.831L35.8154 351.827C29.9714 361.386 37.2745 373.336 48.9606 373.336H235.997H423.039C434.725 373.336 442.028 361.386 436.184 351.827L342.666 198.831L249.142 45.8355C246.559 41.6084 241.877 38.9126 236.716 38.6806V38.6806Z" fill="black"/>
<path d="M423.04 358.998H236H48.9604L142.48 206L236 53.0027L329.52 206L423.04 358.998Z" fill="#FFCC00"/>
<path d="M236.001 345.961C250.574 345.961 262.388 334.802 262.388 321.038C262.388 307.273 250.574 296.115 236.001 296.115C221.428 296.115 209.615 307.273 209.615 321.038C209.615 334.802 221.428 345.961 236.001 345.961Z" fill="black"/>
<path d="M236.001 128.37C221.428 128.369 209.613 139.526 209.612 153.291C219.057 259.179 209.612 153.291 219.057 259.179C219.06 268.016 226.645 275.178 236.001 275.178C245.358 275.178 252.943 268.016 252.946 259.179C262.385 153.291 252.946 259.179 262.385 153.291C262.384 139.528 250.572 128.372 236.001 128.37Z" fill="black"/>
</svg>
