<svg width="487" height="107" viewBox="0 0 487 107" fill="none" xmlns="http://www.w3.org/2000/svg">
<g clip-path="url(#clip0_30_2)">
<path d="M0 107L37.0205 85.6L0 64.2V107Z" fill="#FA6831"/>
<path d="M37.0205 0L0 21.4L37.0205 42.8V85.6L74.0411 64.2V21.4L37.0205 0Z" fill="#FA6831"/>
<path d="M103.16 78.7283V21.3886H130.293C133.861 21.3256 137.384 22.2003 140.51 23.9257C143.462 25.6054 145.861 28.1122 147.412 31.1386C149.108 34.5116 149.95 38.2506 149.864 42.0264C149.947 45.8201 149.105 49.5767 147.412 52.971C145.869 56.0115 143.469 58.5314 140.51 60.2181C137.384 61.9434 133.861 62.8181 130.293 62.7551H118.282V78.6828L103.16 78.7283ZM129.271 48.1699C130.005 48.189 130.735 48.0496 131.411 47.761C132.087 47.4724 132.693 47.0415 133.188 46.4975C134.268 45.2676 134.827 43.663 134.743 42.0264C134.813 40.4089 134.255 38.827 133.188 37.6121C132.701 37.0541 132.098 36.6101 131.421 36.3113C130.744 36.0125 130.01 35.8662 129.271 35.8828H118.236V48.1699H129.271Z" fill="#121212"/>
<path d="M153.895 78.7283V36.1331H166.314L167.132 39.1594H167.54C168.312 38.2128 169.312 37.4803 170.447 37.0319C171.849 36.4159 173.366 36.1094 174.897 36.1331H182.582V49.319H175.226C170.42 49.319 168.017 51.8409 168.017 56.8846V78.7283H153.895Z" fill="#121212"/>
<path d="M200.202 30.3992H185.727V18.9312H200.202V30.3992ZM200.031 78.7283H185.897V36.1331H200.031V78.7283Z" fill="#121212"/>
<path d="M207.161 78.7283V36.1331H219.58L220.398 39.4097H220.806C222.036 38.1718 223.514 37.21 225.143 36.5882C227.318 35.6797 229.656 35.2304 232.011 35.2685C234.984 35.2052 237.92 35.9398 240.514 37.396C242.971 38.8248 244.969 40.9291 246.27 43.4599C247.715 46.2952 248.433 49.4466 248.359 52.6297V78.7283H234.214V55.7469C234.288 53.9655 233.655 52.2271 232.454 50.9117C231.187 49.7015 229.504 49.0264 227.754 49.0264C226.004 49.0264 224.321 49.7015 223.054 50.9117C221.865 52.2334 221.237 53.9684 221.306 55.7469V78.7283H207.161Z" fill="#121212"/>
<path d="M271.654 78.7283C267.242 78.7283 263.889 77.6361 261.596 75.4518C259.303 73.2674 258.167 70.1274 258.19 66.0317V49.319H251.651V36.1331H258.19V23.1065H272.324V36.1331H281.724V49.319H272.324V62.9144C272.239 63.3087 272.254 63.718 272.368 64.105C272.481 64.4919 272.69 64.8442 272.975 65.1294C273.259 65.4146 273.611 65.6238 273.997 65.7377C274.383 65.8516 274.791 65.8666 275.185 65.7814H281.724V78.7283H271.654Z" fill="#121212"/>
<path d="M293.02 77.8296C290.83 76.8116 288.976 75.1897 287.673 73.1536C286.439 71.1648 285.8 68.8627 285.834 66.5209C285.761 64.6221 286.121 62.7317 286.886 60.9931C287.652 59.2544 288.802 57.7133 290.25 56.4864C293.194 53.9532 297.443 52.6828 302.999 52.6752H311.91V51.947C311.936 51.2257 311.811 50.5069 311.543 49.8368C311.275 49.1667 310.871 48.5602 310.355 48.0561C309.69 47.4539 308.898 47.0113 308.037 46.7617C307.176 46.5121 306.27 46.4622 305.387 46.6157C304.504 46.7692 303.668 47.122 302.941 47.6476C302.215 48.1731 301.617 48.8575 301.194 49.6489H287.57C287.845 47.0759 288.788 44.6202 290.306 42.527C291.983 40.2417 294.225 38.434 296.811 37.2822C299.858 35.8995 303.174 35.2117 306.518 35.2685C310.105 35.2181 313.656 35.9967 316.894 37.5439C319.68 38.8366 322.042 40.8962 323.706 43.4826C325.302 46.0332 326.127 48.9933 326.078 52.0039V78.7283H313.59L312.773 75.4518H312.364C311.168 76.7082 309.7 77.6734 308.073 78.2733C305.935 79.1522 303.641 79.5857 301.33 79.5475C298.465 79.6235 295.621 79.0356 293.02 77.8296V77.8296ZM310.048 67.0556C310.684 66.4369 311.18 65.6898 311.505 64.864C311.83 64.0382 311.976 63.1526 311.933 62.2659V61.5264H305.303C303.927 61.4313 302.557 61.7737 301.387 62.5048C300.971 62.8025 300.635 63.1977 300.407 63.6559C300.179 64.1141 300.067 64.6212 300.081 65.1329C300.057 65.6476 300.155 66.1607 300.369 66.6296C300.582 67.0985 300.904 67.5098 301.307 67.8292C302.356 68.5587 303.621 68.9078 304.894 68.819C306.768 68.916 308.606 68.2842 310.026 67.0556H310.048Z" fill="#121212"/>
<path d="M350.645 78.2732C348.957 77.6152 347.45 76.562 346.251 75.2015H345.843L345.025 78.7283H332.628V21.3886H346.774V38.9205H347.182C348.317 37.7832 349.701 36.9262 351.224 36.4175C353.245 35.6425 355.394 35.2565 357.559 35.2798C361.012 35.2557 364.4 36.223 367.322 38.0672C370.353 39.9835 372.812 42.6837 374.44 45.8831C376.257 49.4436 377.169 53.3982 377.096 57.3966C377.16 61.3795 376.248 65.3172 374.44 68.8645C372.823 72.0836 370.362 74.8011 367.322 76.726C364.4 78.5702 361.012 79.5374 357.559 79.5133C355.193 79.5819 352.839 79.1597 350.645 78.2732ZM360.578 63.9838C362.189 62.1944 363.026 59.8377 362.906 57.4307C363.026 55.0237 362.189 52.667 360.578 50.8776C359.828 50.1004 358.929 49.4823 357.935 49.0603C356.942 48.6382 355.873 48.4207 354.794 48.4207C353.715 48.4207 352.647 48.6382 351.653 49.0603C350.659 49.4823 349.761 50.1004 349.01 50.8776C347.433 52.6835 346.618 55.0337 346.74 57.4307C346.618 59.8277 347.433 62.178 349.01 63.9838C349.761 64.7611 350.659 65.3791 351.653 65.8012C352.647 66.2233 353.715 66.4408 354.794 66.4408C355.873 66.4408 356.942 66.2233 357.935 65.8012C358.929 65.3791 359.828 64.7611 360.578 63.9838V63.9838Z" fill="#121212"/>
<path d="M396.055 78.7283H381.921V21.3886H396.055V78.7283Z" fill="#121212"/>
<path d="M411.778 76.635C408.416 74.7713 405.632 72.016 403.729 68.6711C401.772 65.2452 400.768 61.3554 400.823 57.408C400.768 53.4605 401.772 49.5707 403.729 46.1448C405.632 42.8 408.416 40.0447 411.778 38.181C415.271 36.2204 419.218 35.2159 423.221 35.2685C427.134 35.2128 430.994 36.1856 434.415 38.0899C437.689 39.9268 440.393 42.6359 442.226 45.9173C444.125 49.3618 445.088 53.2457 445.018 57.1804C445.029 58.5564 444.892 59.9295 444.61 61.2761H414.718C414.986 63.245 415.978 65.0427 417.5 66.3161C419.063 67.7017 421.089 68.4488 423.176 68.4095C424.627 68.4384 426.065 68.1431 427.388 67.5448C428.411 67.1144 429.34 66.4884 430.124 65.7017H443.883C443.057 68.3017 441.691 70.6971 439.875 72.7305C438.06 74.7638 435.835 76.3891 433.348 77.4996C430.162 78.9264 426.699 79.6258 423.21 79.5475C419.211 79.598 415.268 78.5936 411.778 76.635V76.635ZM431.225 53.4715C430.999 51.4825 430.073 49.6391 428.614 48.2723C427.162 46.8892 425.224 46.1368 423.221 46.1789C421.132 46.1249 419.101 46.8738 417.545 48.2723C416.021 49.6174 415.02 51.4588 414.718 53.4715H431.225Z" fill="#121212"/>
<path d="M456.132 77.5793C453.477 76.3972 451.201 74.4986 449.559 72.0956C448.235 70.1347 447.51 67.8301 447.47 65.4628H461.286C461.277 66.0149 461.407 66.5604 461.663 67.0494C461.918 67.5383 462.293 67.9551 462.751 68.2616C464.085 69.0787 465.642 69.453 467.201 69.331C468.643 69.4277 470.083 69.1287 471.367 68.4664C471.774 68.2666 472.118 67.96 472.364 67.5793C472.61 67.1986 472.748 66.758 472.764 66.3047C472.785 65.8985 472.716 65.4925 472.561 65.1165C472.406 64.7406 472.169 64.4041 471.867 64.1317C470.926 63.471 469.823 63.0779 468.677 62.9941L462.706 62.0839C457.741 61.3254 454.021 59.8085 451.546 57.5331C450.339 56.4546 449.382 55.1252 448.741 53.6378C448.1 52.1503 447.79 50.5405 447.834 48.9208C447.81 46.4189 448.569 43.9724 450.002 41.924C451.628 39.67 453.866 37.9322 456.45 36.9181C459.738 35.6105 463.256 34.9835 466.792 35.0751C470.4 34.979 473.985 35.678 477.293 37.1229C479.933 38.2615 482.21 40.103 483.878 42.4473C485.291 44.4435 486.06 46.8259 486.08 49.2735H472.355C472.36 48.745 472.231 48.2239 471.981 47.7585C471.731 47.2931 471.367 46.8985 470.925 46.6113C469.685 45.8528 468.242 45.4953 466.792 45.5874C465.478 45.5037 464.169 45.8168 463.035 46.4861C462.655 46.7003 462.335 47.0081 462.107 47.3803C461.878 47.7526 461.748 48.177 461.729 48.6136C461.729 50.0926 463.057 51.0255 465.737 51.401L471.867 52.2997C481.706 53.8167 486.625 58.4054 486.625 66.0658C486.637 68.5412 485.879 70.9587 484.457 72.983C482.805 75.2491 480.534 76.9876 477.918 77.9888C474.517 79.301 470.89 79.9236 467.247 79.8205C463.419 79.9466 459.614 79.1793 456.132 77.5793V77.5793Z" fill="#121212"/>
<path d="M318.461 102.813C318.024 102.659 317.634 102.397 317.325 102.051H317.223L317.019 102.927H313.931V88.6718H317.45V93.0291H317.552C317.839 92.7512 318.184 92.5413 318.563 92.4148C319.068 92.2289 319.603 92.1402 320.141 92.1531C320.999 92.1461 321.841 92.3827 322.57 92.8357C323.321 93.3163 323.932 93.9875 324.341 94.7812C324.769 95.6679 324.992 96.6403 324.992 97.6254C324.992 98.6105 324.769 99.5829 324.341 100.47C323.941 101.256 323.337 101.92 322.593 102.392C321.867 102.854 321.023 103.095 320.163 103.086C319.583 103.115 319.003 103.022 318.461 102.813V102.813ZM320.924 99.2637C321.305 98.8073 321.513 98.2315 321.513 97.6368C321.513 97.042 321.305 96.4662 320.924 96.0099C320.744 95.8107 320.522 95.6528 320.276 95.5468C320.029 95.4408 319.762 95.3892 319.494 95.3955C319.224 95.389 318.955 95.4405 318.706 95.5465C318.458 95.6524 318.235 95.8104 318.052 96.0099C317.683 96.4717 317.483 97.0455 317.483 97.6368C317.483 98.2281 317.683 98.8018 318.052 99.2637C318.235 99.4631 318.458 99.6211 318.706 99.7271C318.955 99.833 319.224 99.8845 319.494 99.878C319.762 99.8843 320.029 99.8328 320.276 99.7268C320.522 99.6208 320.744 99.4628 320.924 99.2637V99.2637Z" fill="#121212"/>
<path d="M333.911 92.3351H337.681L333.219 104.85C333.066 105.534 332.663 106.137 332.09 106.539C331.517 106.941 330.814 107.114 330.12 107.023H327.066V103.769H329.223C329.345 103.776 329.467 103.746 329.572 103.683C329.677 103.62 329.761 103.527 329.813 103.416L329.893 103.234L325.704 92.3351H329.461L331.618 98.3649H332.027L333.911 92.3351Z" fill="#121212"/>
<path d="M344.48 102.927V99.2637H347.455C347.569 99.2731 347.684 99.2577 347.792 99.2184C347.9 99.1792 347.998 99.117 348.079 99.0361C348.159 98.949 348.22 98.8466 348.259 98.7351C348.298 98.6237 348.314 98.5055 348.306 98.3876V88.6718H352.064V99.5936C352.094 100.041 352.032 100.491 351.881 100.913C351.731 101.336 351.496 101.723 351.19 102.051C350.859 102.358 350.468 102.594 350.043 102.745C349.617 102.896 349.165 102.958 348.715 102.927H344.48Z" fill="#121212"/>
<path d="M358.058 102.188C356.995 101.566 356.126 100.66 355.549 99.5709C354.945 98.4059 354.63 97.1123 354.63 95.7994C354.63 94.4865 354.945 93.193 355.549 92.028C356.13 90.9442 356.998 90.0425 358.058 89.4226C359.132 88.7972 360.352 88.4677 361.594 88.4677C362.837 88.4677 364.057 88.7972 365.131 89.4226C366.186 90.0489 367.053 90.949 367.64 92.028C368.236 93.1952 368.548 94.4879 368.548 95.7994C368.548 97.1109 368.236 98.4036 367.64 99.5709C367.054 100.654 366.187 101.558 365.131 102.188C364.054 102.806 362.835 103.132 361.594 103.132C360.354 103.132 359.134 102.806 358.058 102.188V102.188ZM363.212 98.9793C363.699 98.6612 364.092 98.217 364.347 97.6937C364.649 97.099 364.798 96.4379 364.779 95.771C364.798 95.1004 364.649 94.4357 364.347 93.8369C364.091 93.3168 363.699 92.8764 363.212 92.5627C362.731 92.2557 362.17 92.0975 361.6 92.1076C361.026 92.0986 360.462 92.2567 359.977 92.5627C359.491 92.8777 359.099 93.3178 358.841 93.8369C358.545 94.4376 358.397 95.1009 358.41 95.771C358.397 96.4374 358.545 97.0971 358.841 97.6937C359.099 98.216 359.491 98.6599 359.977 98.9793C360.462 99.2853 361.026 99.4434 361.6 99.4343C362.17 99.4445 362.731 99.2862 363.212 98.9793Z" fill="#121212"/>
<path d="M373.1 102.552C372.243 102.181 371.519 101.558 371.023 100.765C370.55 99.9716 370.306 99.0618 370.319 98.1374H374.077C374.071 98.3804 374.122 98.6215 374.227 98.8409C374.331 99.0603 374.486 99.2519 374.678 99.4002C375.169 99.6945 375.726 99.8602 376.297 99.882C376.868 99.9039 377.436 99.7812 377.948 99.5254C378.101 99.4367 378.228 99.3089 378.316 99.155C378.403 99.0011 378.449 98.8266 378.447 98.6493C378.448 98.5038 378.414 98.3602 378.346 98.2313C378.279 98.1023 378.181 97.9919 378.061 97.9098C377.653 97.6579 377.197 97.4951 376.722 97.432L374.451 97.0224C373.359 96.8968 372.336 96.4221 371.534 95.6686C371.202 95.2908 370.948 94.8511 370.786 94.3747C370.625 93.8984 370.558 93.3947 370.591 92.8926C370.584 92.0876 370.809 91.2976 371.238 90.6172C371.716 89.9132 372.38 89.3575 373.157 89.0131C374.096 88.5957 375.116 88.3936 376.143 88.4215C377.251 88.3933 378.352 88.6108 379.367 89.0586C380.219 89.4318 380.942 90.0493 381.444 90.8334C381.907 91.6302 382.143 92.5394 382.125 93.4615H378.368C378.375 93.2249 378.327 92.9899 378.229 92.7748C378.13 92.5597 377.984 92.3703 377.8 92.2214C377.36 91.871 376.806 91.6967 376.245 91.7322C375.764 91.7034 375.286 91.8182 374.871 92.0621C374.732 92.1516 374.616 92.2742 374.535 92.4191C374.454 92.5639 374.409 92.7265 374.406 92.8926C374.4 93.0304 374.43 93.1672 374.491 93.2905C374.553 93.4138 374.644 93.5196 374.758 93.598C375.099 93.8222 375.488 93.9626 375.893 94.0076L378.163 94.4171C379.316 94.5467 380.402 95.0271 381.274 95.7937C381.614 96.1827 381.873 96.6354 382.037 97.1256C382.2 97.6159 382.265 98.1338 382.228 98.6493C382.243 99.4749 382.014 100.287 381.569 100.982C381.085 101.707 380.398 102.273 379.594 102.609C378.582 103.023 377.496 103.225 376.404 103.2C375.268 103.234 374.139 103.012 373.1 102.552Z" fill="#121212"/>
<path d="M394.897 102.927H384.941V88.6718H394.897V92.0848H388.699V94.1782H394.5V97.4434H388.699V99.5253H394.897V102.927Z" fill="#121212"/>
<path d="M401.72 102.927H397.962V88.6718H407.862V92.0848H401.72V94.3602H407.305V97.614H401.72V102.927Z" fill="#121212"/>
<path d="M416.558 102.927V88.6718H423.301C424.194 88.6553 425.075 88.875 425.855 89.3089C426.588 89.7244 427.184 90.3452 427.57 91.095C427.973 91.9425 428.182 92.8695 428.182 93.8084C428.182 94.7473 427.973 95.6744 427.57 96.5218C427.188 97.2805 426.592 97.9097 425.855 98.3308C425.074 98.7606 424.193 98.9765 423.301 98.9565H420.315V102.927H416.558ZM423.063 95.3386C423.246 95.3403 423.427 95.3037 423.595 95.2313C423.763 95.1588 423.914 95.052 424.039 94.9177C424.29 94.6047 424.426 94.2154 424.426 93.8141C424.426 93.4128 424.29 93.0236 424.039 92.7106C423.917 92.5725 423.766 92.4624 423.598 92.3878C423.429 92.3132 423.247 92.2758 423.063 92.2782H420.315V95.3386H423.063Z" fill="#121212"/>
<path d="M442.646 102.927H438.105L434.608 98.5925H434.336V102.927H430.578V88.6718H437.492C438.369 88.6596 439.235 88.8793 440.001 89.3089C440.731 89.7244 441.333 90.3348 441.738 91.0723C442.172 91.8869 442.391 92.7996 442.373 93.7231C442.379 94.5095 442.208 95.287 441.874 95.9985C441.555 96.6671 441.075 97.2457 440.478 97.6823C439.966 98.0889 439.354 98.3485 438.707 98.4332L442.646 102.927ZM434.302 95.2363H437.219C437.401 95.2363 437.582 95.1978 437.748 95.1233C437.914 95.0488 438.063 94.94 438.184 94.8039C438.44 94.4955 438.58 94.1071 438.58 93.7061C438.58 93.305 438.44 92.9166 438.184 92.6082C438.063 92.4721 437.914 92.3633 437.748 92.2888C437.582 92.2143 437.401 92.1758 437.219 92.1759H434.302V95.2363Z" fill="#121212"/>
<path d="M447.697 102.392C446.789 101.903 446.049 101.149 445.575 100.231C445.055 99.2104 444.798 98.0765 444.825 96.9314V88.6718H448.583V96.92C448.557 97.5951 448.798 98.253 449.253 98.7517C449.463 98.9844 449.721 99.1688 450.009 99.2925C450.297 99.4162 450.608 99.4762 450.922 99.4685C451.234 99.4705 451.543 99.4079 451.831 99.2845C452.118 99.1612 452.376 98.9798 452.59 98.7517C453.045 98.253 453.286 97.5951 453.26 96.92V88.6718H457.018V96.92C457.046 98.0616 456.789 99.192 456.269 100.208C455.778 101.136 455.023 101.896 454.1 102.392C453.112 102.918 452.006 103.181 450.888 103.155C449.777 103.172 448.68 102.91 447.697 102.392V102.392Z" fill="#121212"/>
<path d="M462.172 102.552C461.315 102.181 460.591 101.558 460.095 100.765C459.625 99.9706 459.386 99.0608 459.402 98.1374H463.183C463.174 98.3809 463.224 98.6228 463.329 98.8427C463.434 99.0625 463.59 99.2538 463.784 99.4002C464.278 99.7472 464.874 99.9157 465.476 99.878C466.025 99.9218 466.575 99.7989 467.054 99.5254C467.204 99.4344 467.328 99.3058 467.414 99.1522C467.499 98.9986 467.544 98.8253 467.542 98.6493C467.543 98.505 467.51 98.3624 467.445 98.2337C467.38 98.105 467.284 97.9939 467.167 97.9098C466.755 97.6582 466.295 97.4955 465.816 97.432L463.546 97.0224C462.455 96.8914 461.434 96.4174 460.628 95.6686C459.963 94.903 459.624 93.906 459.686 92.8926C459.678 92.0858 459.907 91.2944 460.344 90.6172C460.812 89.9094 461.475 89.3523 462.252 89.0131C463.191 88.5968 464.211 88.3947 465.237 88.4215C466.346 88.3921 467.447 88.6097 468.461 89.0586C469.294 89.4441 469.997 90.0649 470.482 90.8448C470.954 91.6384 471.194 92.5491 471.175 93.4728H467.417C467.422 93.2366 467.373 93.0025 467.275 92.7878C467.176 92.573 467.031 92.3833 466.849 92.2327C466.404 91.8845 465.847 91.7106 465.283 91.7435C464.806 91.7128 464.331 91.8279 463.92 92.0735C463.779 92.1607 463.662 92.2828 463.58 92.4281C463.499 92.5735 463.456 92.7373 463.455 92.904C463.45 93.0404 463.479 93.1759 463.538 93.2988C463.598 93.4217 463.686 93.5283 463.796 93.6093C464.137 93.8317 464.526 93.9719 464.931 94.0189L467.201 94.4285C468.354 94.558 469.44 95.0385 470.312 95.8051C470.993 96.5939 471.335 97.6201 471.266 98.6607C471.278 99.4874 471.045 100.299 470.596 100.993C470.117 101.723 469.428 102.291 468.62 102.62C467.609 103.035 466.523 103.236 465.43 103.211C464.309 103.235 463.197 103.009 462.172 102.552V102.552Z" fill="#121212"/>
<path d="M487.023 102.927H482.936L482.186 100.424H477.089L476.34 102.927H472.264L476.998 88.6718H482.277L487.023 102.927ZM479.451 92.6878L478.111 97.1703H481.21L479.848 92.6878H479.451Z" fill="#121212"/>
</g>
<defs>
<clipPath id="clip0_30_2">
<rect width="487" height="107" fill="white"/>
</clipPath>
</defs>
</svg>
