<svg width="3628" height="490" viewBox="0 0 3628 490" fill="none" xmlns="http://www.w3.org/2000/svg">
<path d="M1363.91 135.528C1355.78 135.528 1348.95 134.248 1343.41 131.688C1337.88 129.096 1333.7 125.16 1330.89 119.88C1328.07 114.568 1326.66 107.816 1326.66 99.624C1326.66 91.048 1328.15 84.072 1331.13 78.696C1334.1 73.32 1338.23 69.384 1343.51 66.888C1348.82 64.36 1354.97 63.096 1361.94 63.096C1364.82 63.096 1367.65 63.288 1370.44 63.672C1373.22 64.056 1376.09 64.632 1379.03 65.4V70.68C1375.73 69.752 1372.74 69.128 1370.05 68.808C1367.37 68.456 1364.77 68.28 1362.28 68.28C1356.39 68.28 1351.24 69.304 1346.82 71.352C1342.41 73.4 1338.97 76.728 1336.5 81.336C1334.04 85.912 1332.81 91.976 1332.81 99.528C1332.81 106.664 1333.96 112.504 1336.26 117.048C1338.6 121.592 1342.05 124.952 1346.63 127.128C1351.21 129.272 1356.9 130.344 1363.72 130.344C1366.44 130.344 1368.93 130.248 1371.21 130.056C1373.48 129.832 1375.59 129.528 1377.54 129.144L1375.14 131.88V100.44H1380.81V134.136C1377.51 134.648 1374.57 135 1371.97 135.192C1369.41 135.416 1366.73 135.528 1363.91 135.528ZM1417.61 135V83.016H1422.56L1423.04 89.976H1423.47C1425.45 87.608 1427.95 85.784 1430.96 84.504C1433.97 83.224 1437.01 82.584 1440.08 82.584C1440.97 82.584 1441.79 82.616 1442.53 82.68C1443.26 82.712 1444.03 82.808 1444.83 82.968V88.44C1444.03 88.312 1443.23 88.232 1442.43 88.2C1441.63 88.136 1440.78 88.104 1439.89 88.104C1438.09 88.104 1436.17 88.376 1434.13 88.92C1432.11 89.464 1430.16 90.328 1428.27 91.512C1426.41 92.664 1424.8 94.136 1423.42 95.928V135H1417.61ZM1485.43 135.816C1480.31 135.816 1476.31 134.584 1473.43 132.12C1470.58 129.624 1469.16 126.2 1469.16 121.848C1469.16 117.464 1470.65 114.04 1473.62 111.576C1476.63 109.112 1481.48 107.528 1488.17 106.824L1504.15 105L1504.44 109.272L1488.41 111.096C1483.64 111.64 1480.23 112.744 1478.18 114.408C1476.17 116.072 1475.16 118.408 1475.16 121.416C1475.16 124.488 1476.09 126.872 1477.94 128.568C1479.83 130.264 1482.69 131.112 1486.53 131.112C1489.35 131.112 1492.1 130.552 1494.79 129.432C1497.48 128.28 1499.89 126.456 1502.04 123.96V100.2C1502.04 96.744 1501.48 94.088 1500.36 92.232C1499.24 90.344 1497.57 89.032 1495.37 88.296C1493.19 87.528 1490.52 87.144 1487.35 87.144C1485.24 87.144 1482.87 87.336 1480.25 87.72C1477.62 88.072 1475 88.712 1472.37 89.64V84.696C1474.65 83.896 1477.16 83.288 1479.91 82.872C1482.69 82.456 1485.33 82.248 1487.83 82.248C1492.15 82.248 1495.78 82.808 1498.73 83.928C1501.7 85.016 1503.96 86.888 1505.49 89.544C1507.03 92.168 1507.8 95.784 1507.8 100.392V135H1502.85L1502.37 128.952H1501.94C1500.09 131.064 1497.7 132.744 1494.79 133.992C1491.88 135.208 1488.76 135.816 1485.43 135.816ZM1562.39 135.864C1558.29 135.864 1554.6 135 1551.3 133.272C1548.04 131.544 1545.46 128.792 1543.57 125.016C1541.68 121.208 1540.74 116.232 1540.74 110.088C1540.74 103.848 1541.76 98.664 1543.81 94.536C1545.86 90.408 1548.88 87.336 1552.88 85.32C1556.92 83.272 1561.88 82.248 1567.76 82.248C1569.62 82.248 1571.44 82.344 1573.24 82.536C1575.06 82.696 1576.72 82.904 1578.23 83.16V57.432H1584.04V135H1579.04L1578.61 129.096H1578.18C1576.39 131.144 1574.13 132.792 1571.41 134.04C1568.72 135.256 1565.72 135.864 1562.39 135.864ZM1563.44 130.728C1566.16 130.728 1568.82 130.152 1571.41 129C1574.04 127.848 1576.31 125.96 1578.23 123.336V88.392C1576.79 88.008 1575.14 87.72 1573.28 87.528C1571.46 87.304 1569.6 87.192 1567.72 87.192C1560.71 87.192 1555.44 88.968 1551.92 92.52C1548.44 96.072 1546.69 101.752 1546.69 109.56C1546.69 114.84 1547.4 119.032 1548.8 122.136C1550.21 125.24 1552.16 127.448 1554.66 128.76C1557.19 130.072 1560.12 130.728 1563.44 130.728ZM1637.58 135.864C1634.13 135.864 1631.07 135.256 1628.42 134.04C1625.79 132.824 1623.73 130.856 1622.22 128.136C1620.72 125.384 1619.97 121.752 1619.97 117.24V83.016H1625.82V117C1625.82 122.088 1626.99 125.64 1629.33 127.656C1631.7 129.64 1634.75 130.632 1638.5 130.632C1640.38 130.632 1642.32 130.376 1644.3 129.864C1646.32 129.32 1648.26 128.488 1650.11 127.368C1652 126.216 1653.7 124.744 1655.2 122.952V83.016H1661.01V135H1656.11L1655.63 129.144H1655.2C1652.83 131.352 1650.13 133.032 1647.09 134.184C1644.05 135.304 1640.88 135.864 1637.58 135.864ZM1711.1 135.816C1705.98 135.816 1701.98 134.584 1699.1 132.12C1696.25 129.624 1694.83 126.2 1694.83 121.848C1694.83 117.464 1696.31 114.04 1699.29 111.576C1702.3 109.112 1707.15 107.528 1713.83 106.824L1729.82 105L1730.11 109.272L1714.07 111.096C1709.31 111.64 1705.9 112.744 1703.85 114.408C1701.83 116.072 1700.83 118.408 1700.83 121.416C1700.83 124.488 1701.75 126.872 1703.61 128.568C1705.5 130.264 1708.36 131.112 1712.2 131.112C1715.02 131.112 1717.77 130.552 1720.46 129.432C1723.15 128.28 1725.56 126.456 1727.71 123.96V100.2C1727.71 96.744 1727.15 94.088 1726.03 92.232C1724.91 90.344 1723.24 89.032 1721.03 88.296C1718.86 87.528 1716.19 87.144 1713.02 87.144C1710.91 87.144 1708.54 87.336 1705.91 87.72C1703.29 88.072 1700.67 88.712 1698.04 89.64V84.696C1700.31 83.896 1702.83 83.288 1705.58 82.872C1708.36 82.456 1711 82.248 1713.5 82.248C1717.82 82.248 1721.45 82.808 1724.39 83.928C1727.37 85.016 1729.63 86.888 1731.16 89.544C1732.7 92.168 1733.47 95.784 1733.47 100.392V135H1728.52L1728.04 128.952H1727.61C1725.75 131.064 1723.37 132.744 1720.46 133.992C1717.55 135.208 1714.43 135.816 1711.1 135.816ZM1789.54 135.864C1784.13 135.864 1779.93 134.488 1776.92 131.736C1773.91 128.984 1772.41 124.632 1772.41 118.68V83.016L1773.32 63.96H1778.21V117.672C1778.21 122.44 1779.27 125.816 1781.38 127.8C1783.49 129.784 1786.57 130.776 1790.6 130.776C1791.69 130.776 1792.79 130.696 1793.91 130.536C1795.03 130.376 1796.29 130.136 1797.7 129.816V134.952C1796.26 135.272 1794.89 135.496 1793.57 135.624C1792.29 135.784 1790.95 135.864 1789.54 135.864ZM1761.75 88.008V83.016H1796.79V88.008H1761.75ZM1848.14 135.912C1842.76 135.912 1838.2 134.984 1834.46 133.128C1830.75 131.24 1827.93 128.328 1826.01 124.392C1824.09 120.424 1823.13 115.304 1823.13 109.032C1823.13 102.984 1823.99 97.976 1825.72 94.008C1827.48 90.04 1829.96 87.096 1833.16 85.176C1836.36 83.224 1840.17 82.248 1844.59 82.248C1848.94 82.248 1852.65 83.224 1855.72 85.176C1858.83 87.128 1861.19 90.088 1862.83 94.056C1864.46 98.024 1865.27 103.048 1865.27 109.128V111.048H1825.77V106.728H1861.34L1859.56 107.976C1859.56 102.92 1858.99 98.84 1857.83 95.736C1856.68 92.632 1854.99 90.36 1852.75 88.92C1850.51 87.48 1847.77 86.76 1844.54 86.76C1841.31 86.76 1838.52 87.48 1836.19 88.92C1833.88 90.328 1832.11 92.584 1830.86 95.688C1829.64 98.792 1829.03 102.888 1829.03 107.976V109.704C1829.03 114.824 1829.79 118.952 1831.29 122.088C1832.79 125.192 1835 127.464 1837.91 128.904C1840.86 130.312 1844.47 131.016 1848.76 131.016C1850.94 131.016 1853.16 130.824 1855.43 130.44C1857.74 130.024 1860.15 129.432 1862.68 128.664V133.608C1860.09 134.376 1857.61 134.952 1855.24 135.336C1852.87 135.72 1850.51 135.912 1848.14 135.912ZM1936.68 135L1964.52 63.96H1972.58L2000.42 135H1994.28L1967.88 66.888H1969.13L1942.68 135H1936.68ZM1950.31 110.952L1951.8 105.912H1985.26L1986.74 110.952H1950.31ZM2040.52 135L2024.01 83.016H2029.91L2044.69 130.44H2043.93L2059.14 83.016H2066.34L2081.56 130.44H2080.74L2095.57 83.016H2101.24L2084.82 135H2077.62L2062.21 87.336H2063.13L2047.67 135H2040.52ZM2144.62 135.816C2139.5 135.816 2135.5 134.584 2132.62 132.12C2129.77 129.624 2128.35 126.2 2128.35 121.848C2128.35 117.464 2129.84 114.04 2132.81 111.576C2135.82 109.112 2140.67 107.528 2147.36 106.824L2163.34 105L2163.63 109.272L2147.6 111.096C2142.83 111.64 2139.42 112.744 2137.37 114.408C2135.36 116.072 2134.35 118.408 2134.35 121.416C2134.35 124.488 2135.28 126.872 2137.13 128.568C2139.02 130.264 2141.88 131.112 2145.72 131.112C2148.54 131.112 2151.29 130.552 2153.98 129.432C2156.67 128.28 2159.08 126.456 2161.23 123.96V100.2C2161.23 96.744 2160.67 94.088 2159.55 92.232C2158.43 90.344 2156.76 89.032 2154.56 88.296C2152.38 87.528 2149.71 87.144 2146.54 87.144C2144.43 87.144 2142.06 87.336 2139.44 87.72C2136.81 88.072 2134.19 88.712 2131.56 89.64V84.696C2133.84 83.896 2136.35 83.288 2139.1 82.872C2141.88 82.456 2144.52 82.248 2147.02 82.248C2151.34 82.248 2154.97 82.808 2157.92 83.928C2160.89 85.016 2163.15 86.888 2164.68 89.544C2166.22 92.168 2166.99 95.784 2166.99 100.392V135H2162.04L2161.56 128.952H2161.13C2159.28 131.064 2156.89 132.744 2153.98 133.992C2151.07 135.208 2147.95 135.816 2144.62 135.816ZM2202.91 135V83.016H2207.85L2208.33 89.976H2208.76C2210.75 87.608 2213.24 85.784 2216.25 84.504C2219.26 83.224 2222.3 82.584 2225.37 82.584C2226.27 82.584 2227.08 82.616 2227.82 82.68C2228.55 82.712 2229.32 82.808 2230.12 82.968V88.44C2229.32 88.312 2228.52 88.232 2227.72 88.2C2226.92 88.136 2226.07 88.104 2225.18 88.104C2223.39 88.104 2221.47 88.376 2219.42 88.92C2217.4 89.464 2215.45 90.328 2213.56 91.512C2211.71 92.664 2210.09 94.136 2208.71 95.928V135H2202.91ZM2276.33 135.864C2272.23 135.864 2268.54 135 2265.24 133.272C2261.98 131.544 2259.4 128.792 2257.51 125.016C2255.63 121.208 2254.68 116.232 2254.68 110.088C2254.68 103.848 2255.71 98.664 2257.75 94.536C2259.8 90.408 2262.83 87.336 2266.83 85.32C2270.86 83.272 2275.82 82.248 2281.71 82.248C2283.56 82.248 2285.39 82.344 2287.18 82.536C2289 82.696 2290.67 82.904 2292.17 83.16V57.432H2297.98V135H2292.99L2292.55 129.096H2292.12C2290.33 131.144 2288.07 132.792 2285.35 134.04C2282.67 135.256 2279.66 135.864 2276.33 135.864ZM2277.39 130.728C2280.11 130.728 2282.76 130.152 2285.35 129C2287.98 127.848 2290.25 125.96 2292.17 123.336V88.392C2290.73 88.008 2289.08 87.72 2287.23 87.528C2285.4 87.304 2283.55 87.192 2281.66 87.192C2274.65 87.192 2269.39 88.968 2265.87 92.52C2262.38 96.072 2260.63 101.752 2260.63 109.56C2260.63 114.84 2261.34 119.032 2262.75 122.136C2264.15 125.24 2266.11 127.448 2268.6 128.76C2271.13 130.072 2274.06 130.728 2277.39 130.728Z" fill="black"/>
<path d="M751.239 272.776H804.935V277H746.887V182.28H804.295V186.504H751.239V226.184H798.087V230.408H751.239V272.776ZM867.711 229.128L904.063 277H898.431L864.959 232.84L831.487 277H825.983L862.335 229.192L826.623 182.28H832.191L865.087 225.544L898.047 182.28H903.423L867.711 229.128ZM967.438 278.152C939.747 278.152 925.902 262.024 925.902 229.768C925.902 213 929.614 200.712 937.038 192.904C944.462 185.053 954.958 181.128 968.526 181.128C972.536 181.128 976.312 181.405 979.854 181.96C983.438 182.472 987.086 183.261 990.798 184.328V188.68C983.502 186.461 975.992 185.352 968.27 185.352C955.939 185.352 946.552 188.829 940.11 195.784C933.71 202.696 930.51 213.939 930.51 229.512C930.51 240.435 932.003 249.181 934.99 255.752C938.019 262.28 942.243 266.952 947.662 269.768C953.123 272.541 959.736 273.928 967.502 273.928C971.555 273.928 975.374 273.629 978.958 273.032C982.584 272.392 986.531 271.325 990.798 269.832V274.184C983.502 276.829 975.715 278.152 967.438 278.152ZM1025.77 272.776H1079.47V277H1021.42V182.28H1078.83V186.504H1025.77V226.184H1072.62V230.408H1025.77V272.776ZM1112.89 277V182.28H1117.24V272.776H1168.89V277H1112.89ZM1197.74 277V182.28H1202.09V272.776H1253.74V277H1197.74ZM1286.93 272.776H1340.63V277H1282.58V182.28H1339.99V186.504H1286.93V226.184H1333.78V230.408H1286.93V272.776ZM1440.93 182.28H1445.16V277H1440.36L1378.28 188.872V277H1374.05V182.28H1378.85L1440.93 270.408V182.28ZM1522.63 278.152C1494.94 278.152 1481.1 262.024 1481.1 229.768C1481.1 213 1484.81 200.712 1492.23 192.904C1499.66 185.053 1510.15 181.128 1523.72 181.128C1527.73 181.128 1531.51 181.405 1535.05 181.96C1538.63 182.472 1542.28 183.261 1545.99 184.328V188.68C1538.7 186.461 1531.19 185.352 1523.46 185.352C1511.13 185.352 1501.75 188.829 1495.3 195.784C1488.9 202.696 1485.7 213.939 1485.7 229.512C1485.7 240.435 1487.2 249.181 1490.18 255.752C1493.21 262.28 1497.44 266.952 1502.86 269.768C1508.32 272.541 1514.93 273.928 1522.7 273.928C1526.75 273.928 1530.57 273.629 1534.15 273.032C1537.78 272.392 1541.73 271.325 1545.99 269.832V274.184C1538.7 276.829 1530.91 278.152 1522.63 278.152ZM1580.97 272.776H1634.66V277H1576.62V182.28H1634.02V186.504H1580.97V226.184H1627.82V230.408H1580.97V272.776ZM1715.81 277V182.28H1720.16V277H1715.81ZM1827.78 182.28H1832.01V277H1827.21L1765.13 188.872V277H1760.9V182.28H1765.7L1827.78 270.408V182.28ZM1942.99 277V186.504H1908.56V182.28H1981.78V186.504H1947.35V277H1942.99ZM2014.91 272.776H2068.61V277H2010.56V182.28H2067.97V186.504H2014.91V226.184H2061.76V230.408H2014.91V272.776ZM2137.89 278.152C2110.2 278.152 2096.36 262.024 2096.36 229.768C2096.36 213 2100.07 200.712 2107.49 192.904C2114.92 185.053 2125.41 181.128 2138.98 181.128C2142.99 181.128 2146.77 181.405 2150.31 181.96C2153.89 182.472 2157.54 183.261 2161.25 184.328V188.68C2153.96 186.461 2146.45 185.352 2138.72 185.352C2126.39 185.352 2117.01 188.829 2110.56 195.784C2104.16 202.696 2100.96 213.939 2100.96 229.512C2100.96 240.435 2102.46 249.181 2105.44 255.752C2108.47 262.28 2112.7 266.952 2118.12 269.768C2123.58 272.541 2130.19 273.928 2137.96 273.928C2142.01 273.928 2145.83 273.629 2149.41 273.032C2153.04 272.392 2156.99 271.325 2161.25 269.832V274.184C2153.96 276.829 2146.17 278.152 2137.89 278.152ZM2191.88 277V182.28H2196.23V226.184H2256.71V182.28H2261.06V277H2256.71V230.408H2196.23V277H2191.88ZM2368.6 182.28H2372.83V277H2368.03L2305.95 188.872V277H2301.72V182.28H2306.52L2368.6 270.408V182.28ZM2447.61 278.152C2435.5 278.152 2425.98 274.205 2419.07 266.312C2412.2 258.419 2408.77 246.195 2408.77 229.64C2408.77 218.461 2410.39 209.267 2413.63 202.056C2416.87 194.845 2421.37 189.555 2427.13 186.184C2432.94 182.813 2439.76 181.128 2447.61 181.128C2459.73 181.128 2469.23 185.075 2476.09 192.968C2483.01 200.819 2486.46 213.043 2486.46 229.64C2486.46 240.776 2484.84 249.949 2481.6 257.16C2478.36 264.371 2473.83 269.683 2468.03 273.096C2462.27 276.467 2455.47 278.152 2447.61 278.152ZM2447.61 273.8C2458.41 273.8 2466.81 270.323 2472.83 263.368C2478.85 256.413 2481.85 245.256 2481.85 229.896C2481.85 200.243 2470.44 185.416 2447.61 185.416C2436.86 185.416 2428.46 188.915 2422.4 195.912C2416.38 202.867 2413.37 214.024 2413.37 229.384C2413.37 258.995 2424.79 273.8 2447.61 273.8ZM2522.41 277V182.28H2526.76V272.776H2578.41V277H2522.41ZM2638.8 278.152C2626.69 278.152 2617.17 274.205 2610.26 266.312C2603.39 258.419 2599.96 246.195 2599.96 229.64C2599.96 218.461 2601.58 209.267 2604.82 202.056C2608.06 194.845 2612.56 189.555 2618.32 186.184C2624.13 182.813 2630.95 181.128 2638.8 181.128C2650.92 181.128 2660.42 185.075 2667.28 192.968C2674.2 200.819 2677.65 213.043 2677.65 229.64C2677.65 240.776 2676.03 249.949 2672.79 257.16C2669.55 264.371 2665.02 269.683 2659.22 273.096C2653.46 276.467 2646.66 278.152 2638.8 278.152ZM2638.8 273.8C2649.6 273.8 2658 270.323 2664.02 263.368C2670.04 256.413 2673.04 245.256 2673.04 229.896C2673.04 200.243 2661.63 185.416 2638.8 185.416C2628.05 185.416 2619.65 188.915 2613.59 195.912C2607.57 202.867 2604.56 214.024 2604.56 229.384C2604.56 258.995 2615.98 273.8 2638.8 273.8ZM2778.37 230.92V275.784C2774.15 276.509 2770.39 277 2767.11 277.256C2763.86 277.512 2760.36 277.64 2756.61 277.64C2740.78 277.64 2728.85 273.693 2720.83 265.8C2712.81 257.907 2708.8 245.832 2708.8 229.576C2708.8 218.397 2710.68 209.203 2714.43 201.992C2718.23 194.781 2723.46 189.512 2730.11 186.184C2736.77 182.813 2744.51 181.128 2753.35 181.128C2757.14 181.128 2760.88 181.405 2764.55 181.96C2768.21 182.472 2772.1 183.261 2776.19 184.328V188.68C2771.84 187.443 2767.85 186.589 2764.23 186.12C2760.64 185.608 2757.04 185.352 2753.41 185.352C2741.04 185.352 2731.27 188.872 2724.1 195.912C2716.97 202.909 2713.41 214.067 2713.41 229.384C2713.41 244.488 2716.99 255.603 2724.16 262.728C2731.33 269.853 2742.15 273.416 2756.61 273.416C2763.39 273.416 2769.2 272.947 2774.02 272.008V230.92H2778.37ZM2879.11 182.28L2842.95 233.544V277H2838.6V233.544L2801.93 182.28H2807.43L2840.84 229.384L2873.86 182.28H2879.11Z" fill="black"/>
<path d="M228.408 440.354H219V361.118H228.408V396.148H269.816V361.118H279.214V440.354H269.816V405.441H228.408V440.354Z" fill="#231F20"/>
<path d="M335.901 416.184C335.901 426.926 346.203 432.077 356.612 432.077C366.907 432.077 377.313 426.926 377.313 416.184V361.118H386.717V416.184C386.717 432.968 371.605 441.472 356.612 441.472C341.499 441.472 326.503 432.968 326.503 416.184V361.118H335.901V416.184Z" fill="#231F20"/>
<path d="M443.304 440.354H433.896V361.118H445.646L470.157 416.404L494.67 361.118H506.421V440.354H497.022V378.69L474.187 429.946H466.24L443.304 378.799V440.354Z" fill="#231F20"/>
<path d="M592.657 405.552C588.296 393.352 585.043 383.837 580.576 371.193C576.546 382.829 572.736 393.688 568.486 405.552H592.657ZM614.931 440.354H605.077L595.909 414.953H565.354C562.441 423.233 559.198 432.077 556.396 440.354H546.438L574.862 361.118H586.281L614.931 440.354Z" fill="#231F20"/>
<path d="M705.654 361.118H715.052V440.354H703.191L664.242 377.572V440.354H654.838V361.118H664.913L705.654 426.589V361.118Z" fill="#231F20"/>
<path d="M812.806 385.071C812.806 368.727 827.911 360 843.023 360C854.436 360 865.954 365.148 870.991 375.894L862.601 379.924C858.909 372.871 850.745 369.178 842.685 369.178C832.497 369.178 822.204 374.549 822.204 384.844V416.744C822.204 427.04 832.497 432.077 842.685 432.077C850.849 432.077 859.022 428.494 862.601 421.441L870.991 425.359C865.849 436.101 854.097 441.472 842.685 441.472C827.798 441.472 812.806 433.195 812.806 416.744V385.071Z" fill="#231F20"/>
<path d="M922.551 396.037H960.707V405.441H922.551V430.953H963.955V440.354H913.145V361.118H963.955V370.519H922.551V396.037Z" fill="#231F20"/>
<path d="M1059.05 361.118H1068.44V440.354H1056.59L1017.64 377.572V440.354H1008.24V361.118H1018.31L1059.05 426.589V361.118Z" fill="#231F20"/>
<path d="M1144.39 370.519V440.354H1134.99V370.519H1109.58V361.118H1169.8V370.519H1144.39Z" fill="#231F20"/>
<path d="M1220.23 396.037H1258.39V405.441H1220.23V430.953H1261.63V440.354H1210.82V361.118H1261.63V370.519H1220.23V396.037Z" fill="#231F20"/>
<path d="M1336.36 399.28C1347.1 399.28 1353.93 395.7 1353.93 384.844C1353.93 373.879 1346.66 370.519 1336.36 370.519H1315.44V399.28H1336.36ZM1327.63 408.013H1315.44V440.354H1306.03V361.118H1336.25C1351.47 361.118 1363 367.946 1363.33 384.844C1363.33 400.627 1352.82 407.227 1339.27 407.901L1364.79 440.354H1353.25L1327.63 408.013Z" fill="#231F20"/>
<path d="M1416.01 396.037H1454.16V405.441H1416.01V430.953H1457.4V440.354H1406.6V361.118H1457.4V370.519H1416.01V396.037Z" fill="#231F20"/>
<path d="M1528.66 430.953C1539.07 430.953 1549.36 426.926 1549.36 416.628V384.955C1549.36 374.549 1539.07 370.519 1528.66 370.519H1511.21V430.953H1528.66ZM1528.66 361.118C1543.77 361.118 1558.77 368.17 1558.77 384.955V416.628C1558.77 433.302 1543.77 440.354 1528.66 440.354H1501.8V361.118H1528.66Z" fill="#231F20"/>
<path d="M1683.6 430.953C1694.01 430.953 1704.3 426.926 1704.3 416.628V384.955C1704.3 374.549 1694.01 370.519 1683.6 370.519H1666.14V430.953H1683.6ZM1683.6 361.118C1698.7 361.118 1713.7 368.17 1713.7 384.955V416.628C1713.7 433.302 1698.7 440.354 1683.6 440.354H1656.74V361.118H1683.6Z" fill="#231F20"/>
<path d="M1768.84 396.037H1807V405.441H1768.84V430.953H1810.26V440.354H1759.44V361.118H1810.26V370.519H1768.84V396.037Z" fill="#231F20"/>
<path d="M1880.15 394.696C1893.92 397.382 1909.03 400.287 1908.02 419.767C1907.24 434.309 1893.36 441.472 1879.26 441.472C1867.29 441.472 1854.75 435.767 1849.83 424.464L1858.45 420.548C1861.8 428.158 1870.87 432.188 1879.48 432.188C1888.88 432.188 1898.06 427.931 1898.62 419.317C1899.62 407.901 1889.11 405.886 1877.92 403.537C1865.05 400.851 1851.61 397.155 1851.51 381.265C1852.29 367.386 1865.72 360 1879.38 360C1891.12 360 1903.55 365.482 1908.35 376.564L1899.86 380.37C1896.6 372.984 1887.77 369.064 1879.38 369.064C1870.2 369.064 1861.35 373.208 1860.79 381.598C1860.12 391.116 1869.75 392.681 1880.15 394.696Z" fill="#231F20"/>
<path d="M1961.58 440.354H1952.3V361.118H1961.58V440.354Z" fill="#231F20"/>
<path d="M2007.11 384.735C2007.11 368.394 2022.11 360 2037.1 360C2048.4 360 2059.94 365.371 2065.09 376.117L2056.58 379.924C2053.1 372.871 2044.83 369.178 2036.89 369.178C2026.7 369.178 2016.41 374.212 2016.41 384.511V416.404C2016.41 426.926 2026.81 432.077 2037.1 432.077C2047.4 432.077 2057.92 426.926 2057.92 416.404V408.458H2034.53V399.17H2067.21V416.404C2067.21 433.195 2052.22 441.472 2037.1 441.472C2022 441.472 2007.11 433.195 2007.11 416.404V384.735Z" fill="#231F20"/>
<path d="M2162.29 361.118H2171.69V440.354H2159.83L2120.89 377.572V440.354H2111.48V361.118H2121.56L2162.29 426.589V361.118Z" fill="#231F20"/>
<path d="M2283.54 377.909C2283.54 382.272 2287.57 387.31 2290.7 390.889C2296.3 388.093 2303.13 384.17 2303.13 377.348C2303.13 372.087 2299.21 368.394 2293.84 368.394C2288.13 368.394 2283.54 372.31 2283.54 377.909ZM2288.13 401.071C2282.31 404.654 2275.6 411.37 2275.6 418.643C2275.6 427.263 2282.65 432.522 2291.26 432.522C2298.21 432.522 2303.35 428.158 2307.27 422.896L2288.13 401.071ZM2312.19 415.063C2313.99 411.931 2316.33 408.234 2317.91 405.442L2325.74 409.355L2318.58 421.332L2331.66 436.441H2319.7L2313.2 429.278C2307.15 436.775 2300.44 441.472 2290.25 441.472C2276.94 441.472 2266.31 432.745 2266.31 418.866C2266.31 407.45 2274.04 400.064 2282.31 395.03C2278.17 390.215 2274.14 384.735 2274.14 378.018C2274.14 366.605 2283.77 360 2294.18 360C2303.69 360 2312.42 366.829 2312.42 376.901C2312.42 387.533 2304.7 392.458 2296.75 396.708L2312.19 415.063Z" fill="#231F20"/>
<path d="M2432.99 396.037H2471.16V405.441H2432.99V430.953H2474.4V440.354H2423.59V361.118H2474.4V370.519H2432.99V396.037Z" fill="#231F20"/>
<path d="M2569.6 361.118H2579V440.354H2567.15L2528.2 377.572V440.354H2518.79V361.118H2528.87L2569.6 426.589V361.118Z" fill="#231F20"/>
<path d="M2624.52 384.735C2624.52 368.394 2639.51 360 2654.51 360C2665.81 360 2677.34 365.371 2682.48 376.117L2673.98 379.924C2670.52 372.871 2662.23 369.178 2654.28 369.178C2644.1 369.178 2633.8 374.212 2633.8 384.511V416.404C2633.8 426.926 2644.21 432.077 2654.51 432.077C2664.8 432.077 2675.33 426.926 2675.33 416.404V408.458H2651.93V399.17H2684.61V416.404C2684.61 433.195 2669.62 441.472 2654.51 441.472C2639.4 441.472 2624.52 433.195 2624.52 416.404V384.735Z" fill="#231F20"/>
<path d="M2738.18 440.354H2728.89V361.118H2738.18V440.354Z" fill="#231F20"/>
<path d="M2836.87 361.118H2846.26V440.354H2834.4L2795.45 377.572V440.354H2786.05V361.118H2796.12L2836.87 426.589V361.118Z" fill="#231F20"/>
<path d="M2903.52 396.037H2941.69V405.441H2903.52V430.953H2944.93V440.354H2894.12V361.118H2944.93V370.519H2903.52V396.037Z" fill="#231F20"/>
<path d="M2998.73 396.037H3036.88V405.441H2998.73V430.953H3040.12V440.354H2989.32V361.118H3040.12V370.519H2998.73V396.037Z" fill="#231F20"/>
<path d="M3114.85 399.28C3125.59 399.28 3132.43 395.7 3132.43 384.844C3132.43 373.879 3125.15 370.519 3114.85 370.519H3093.92V399.28H3114.85ZM3106.12 408.013H3093.92V440.354H3084.52V361.118H3114.73C3129.96 361.118 3141.49 367.946 3141.82 384.844C3141.82 400.627 3131.31 407.227 3117.76 407.901L3143.28 440.354H3131.75L3106.12 408.013Z" fill="#231F20"/>
<path d="M3194.37 440.354H3185.09V361.118H3194.37V440.354Z" fill="#231F20"/>
<path d="M3293.05 361.118H3302.46V440.354H3290.6L3251.66 377.572V440.354H3242.25V361.118H3252.33L3293.05 426.589V361.118Z" fill="#231F20"/>
<path d="M3347.97 384.735C3347.97 368.394 3362.97 360 3377.96 360C3389.27 360 3400.79 365.371 3405.94 376.117L3397.43 379.924C3393.96 372.871 3385.68 369.178 3377.74 369.178C3367.55 369.178 3357.26 374.212 3357.26 384.511V416.404C3357.26 426.926 3367.67 432.077 3377.96 432.077C3388.26 432.077 3398.78 426.926 3398.78 416.404V408.458H3375.39V399.17H3408.07V416.404C3408.07 433.195 3393.07 441.472 3377.96 441.472C3362.85 441.472 3347.97 433.195 3347.97 416.404V384.735Z" fill="#231F20"/>
</svg>
