<svg width="600" height="289" viewBox="0 0 600 289" fill="none" xmlns="http://www.w3.org/2000/svg">
<g clip-path="url(#clip0_105_2)">
<path d="M129.85 151.47C129.77 160.54 129.71 169.6 129.59 178.67C129.57 180.46 129.28 182.26 129.12 184.05C114.37 184.05 99.62 184.03 84.87 184.02C78.32 181.03 71.1 178.98 65.37 174.85C52.51 165.6 47.11 148.77 51.51 134.04C56.37 117.76 67.16 107.84 84.13 104.99C84.75 104.89 85.34 104.53 85.94 104.29C100.22 104.23 114.51 104.17 128.79 104.1C129.01 104.27 129.25 104.37 129.52 104.41C129.64 115.13 129.75 125.86 129.87 136.58C129.87 141.54 129.86 146.5 129.85 151.46V151.47Z" fill="#A161F9"/>
<path d="M129.52 104.42C129.25 104.38 129 104.28 128.79 104.11C128.81 77.8099 128.83 51.5099 128.86 25.1999C142.52 25.1599 156.18 24.9799 169.84 25.1099C189.84 25.2999 206.57 40.8899 208.72 61.0899C210.73 79.9899 197.26 98.6099 178.33 103.09C176.55 103.51 174.75 103.86 172.96 104.25C170.3 104.31 167.64 104.38 164.97 104.44C153.15 104.44 141.33 104.43 129.52 104.42V104.42Z" fill="#FC7366"/>
<path d="M128.85 25.1998C128.83 51.4998 128.81 77.7998 128.78 104.11C114.49 104.17 100.21 104.23 85.93 104.3C65.31 100.1 53.3801 88.4098 50.5501 69.6198C47.2301 47.5298 65.04 25.7998 87.42 25.1698C101.22 24.7798 115.04 25.1698 128.85 25.1998Z" fill="#EE4F2B"/>
<path d="M84.8799 184.01C99.6299 184.02 114.38 184.03 129.13 184.04C129.01 199.65 130.15 215.4 128.44 230.83C126.25 250.54 107.63 263.96 86.7699 263.08C68.1499 262.3 52.3499 246.68 50.2399 226.98C48.2299 208.24 61.3999 189.74 80.0199 185.14C81.6299 184.74 83.2599 184.39 84.8799 184.02V184.01Z" fill="#26CE85"/>
<path d="M164.97 104.44C167.63 104.38 170.29 104.31 172.96 104.25C183.67 106.3 193.29 110.38 200.08 119.36C210.52 133.17 212.08 148.04 203.75 163.21C195.94 177.44 183.18 184.45 167.08 183.57C149.69 182.63 136.4 171.63 131.33 155.64C130.88 154.23 130.34 152.85 129.85 151.45C129.85 146.49 129.86 141.53 129.87 136.56C134.95 118.61 146.33 107.55 164.97 104.42V104.44Z" fill="#2CBDFA"/>
<path d="M481.84 173.98H471.13C471.13 171.51 471.13 169.09 471.13 166.67C471.16 157.01 471.2 147.35 471.22 137.69C471.22 130.6 466.3 125.27 459.73 125.2C453.24 125.14 447.99 130.53 447.96 137.5C447.9 149.48 447.94 161.46 447.94 173.77H437.54C437.54 164.3 437.55 154.71 437.54 145.12C437.54 142.62 437.63 140.11 437.33 137.64C436.53 131.02 431.47 126.75 425.07 127.08C419.3 127.38 414.74 131.93 414.58 138.31C414.33 148.3 414.48 158.29 414.47 168.28C414.47 170.07 414.47 171.85 414.47 173.8H403.87C403.87 164.5 403.87 155.24 403.87 145.98C403.87 136.72 403.87 127.72 403.87 118.33H414.14C414.36 119.52 414.58 120.72 414.83 122.04C426.43 113.68 435.54 114.68 445.69 126.44C446.46 125.05 446.91 123.5 447.92 122.52C453.49 117.11 460.17 115.19 467.65 117.35C475.02 119.49 479.77 124.78 480.8 132.19C481.86 139.89 481.66 147.77 481.84 155.57C481.98 161.54 481.87 167.51 481.87 173.97L481.84 173.98Z" fill="white"/>
<path d="M376.68 122.75C376.82 120.87 376.92 119.64 377.01 118.35H386.95C386.95 137.19 388.41 155.95 386.57 174.38C384.39 196.27 358.58 202.84 345.55 192.51C347.08 189.83 348.62 187.13 350.35 184.1C357.21 187.8 363.92 188.31 370.32 183.29C376.93 178.1 377.34 170.98 376.64 162.9C370.28 167.96 363.5 170.28 355.66 168.4C350.07 167.06 345.62 164.11 342.22 159.53C334.32 148.89 335.28 132.8 344.34 123.68C353.09 114.87 364.82 114.33 376.67 122.75H376.68ZM376.88 142.73C376.87 133.31 370.91 126.88 362.18 126.87C353.5 126.85 347.44 133.33 347.38 142.71C347.32 152.21 353.74 159.16 362.41 158.98C371.01 158.8 376.89 152.19 376.88 142.74V142.73Z" fill="white"/>
<path d="M538.87 123.81C538.96 121.69 539.03 120.07 539.11 118.27H549.42V173.72H539.2C539.07 172.01 538.94 170.4 538.77 168.2C532.58 173.41 525.89 176.22 517.81 175.44C509.78 174.66 503.65 170.97 498.95 164.7C490.12 152.91 491.34 134.57 501.55 124.3C511.54 114.24 525.24 113.96 538.86 123.82L538.87 123.81ZM539.02 146.14C539.02 134.8 531.76 126.96 521.29 126.97C510.77 126.97 503.51 134.81 503.51 146.13C503.51 157.48 510.79 165.35 521.28 165.36C531.72 165.37 539.03 157.46 539.02 146.14V146.14Z" fill="white"/>
<path d="M263.05 173.82H252.62V91.1201H296.11V101H263.27V123.99H288.62V133.91H263.05V173.82Z" fill="white"/>
<path d="M310.88 118.32H320.76V173.67H310.88V118.32Z" fill="white"/>
<path d="M322.85 101.37C322.4 105.13 318.92 107.98 315.23 107.58C311.41 107.17 308.6 103.77 308.97 100.02C309.36 96.02 312.9 93.36 317.07 93.92C320.43 94.37 323.25 98.01 322.85 101.37Z" fill="white"/>
</g>
<defs>
<clipPath id="clip0_105_2">
<rect width="499.42" height="238.12" fill="white" transform="translate(50 25)"/>
</clipPath>
</defs>
</svg>
